# Blender v2.79 (sub 0) OBJ File: 'Cloud_4.blend'
# www.blender.org
mtllib Cloud_4.mtl
o Cloud_4_Icosphere.045
v 1.224633 -0.731664 -0.703742
v 0.826702 -1.050882 -0.460812
v 0.573572 -0.694170 -0.009183
v 0.311640 -0.732821 -0.240513
v 0.337259 -0.898739 -0.724086
v 1.154484 -0.684936 -0.215484
v 1.313301 -0.128896 -0.551246
v 0.840004 -0.581756 -1.146413
v 0.219280 -0.104865 -0.530427
v 0.721332 0.181372 -0.530185
v 0.467918 0.085465 -0.354057
v 0.264471 -0.138247 -0.924367
v 0.860633 -0.003664 -0.968203
v -0.896123 0.221173 0.349002
v -0.758420 0.326368 -0.611913
v -1.103535 0.852393 -0.555255
v -0.862191 1.268390 -0.158389
v -0.650347 0.007152 -0.158389
v -1.261759 0.238643 -0.081432
v -0.140572 0.476278 -0.156125
v -0.494969 0.476278 0.481049
v -1.285278 0.849848 0.228270
v -1.376877 0.605911 -0.081432
v -0.565395 0.735933 -0.668881
v -0.717846 1.040832 0.395254
v -0.250780 1.036900 -0.081432
v 0.559025 -0.501001 0.600754
v 0.364288 -0.351330 0.919893
v 0.143326 -0.244086 0.600754
v 0.974724 0.171615 0.600754
v 0.802367 -0.351330 0.884580
v 0.954377 -0.280579 0.600754
v 0.756700 -0.431590 0.457137
v 0.314684 -0.431589 0.600754
v 0.483521 -0.431590 0.368374
v 1.001044 -0.036235 0.457136
v 0.914102 0.090013 0.930910
v 0.117006 -0.036235 0.744373
v 0.354753 0.090013 1.040477
v 0.163673 0.208109 0.600754
v 0.678202 0.429979 0.687341
v 0.361350 0.359120 0.744372
v 0.361350 0.359120 0.457136
v 0.878247 0.216034 0.357821
v -0.569386 -0.448212 0.444520
v -1.180228 -0.627028 -0.584248
v -0.569386 -0.448212 -0.370300
v -1.016404 0.082398 0.809192
v -1.268213 0.720369 0.137423
v -1.198704 -0.872153 0.248121
v -1.132948 -0.507553 0.728589
v -0.470936 -0.509058 0.037110
v -0.805513 -0.843769 0.037110
v -1.788648 -0.507549 0.248120
v -1.676471 -0.668439 -0.153704
v -0.674641 -0.101640 0.664056
v -1.582805 0.178119 0.654734
v -1.939104 -0.143170 0.037110
v -0.674641 -0.101640 -0.589836
v -1.380128 -0.143169 -0.732257
v -0.596833 0.305778 0.424582
v -1.786914 0.304268 -0.179237
v -0.596833 0.305778 -0.350362
v -0.722731 0.557571 0.037110
v -1.080060 0.423748 -0.584248
v 1.486272 -0.356020 0.641650
v 0.340478 -0.422829 0.024024
v 1.030809 -0.482173 -0.667454
v 1.690381 -0.482170 -0.192322
v 0.472854 0.270312 0.431434
v 0.472854 0.270312 -0.383386
v 1.692116 0.329651 0.235034
v 1.102172 0.694252 -0.186986
v 0.965052 -0.846773 0.235035
v 1.358244 -0.818389 0.024024
v 0.500301 -0.483678 0.411496
v 0.770981 -0.818390 -0.166788
v 0.500301 -0.483679 -0.363448
v 1.842572 -0.034731 0.024024
v 0.919872 -0.260298 0.796105
v 0.578109 -0.076260 0.650970
v 0.578109 -0.076260 -0.602922
v 1.283596 -0.034731 -0.745343
v 0.374404 0.331158 0.024024
v 1.036416 0.329652 -0.667455
v 1.083697 0.449128 0.645382
v 1.579937 0.490538 -0.166790
v 0.708981 0.665869 0.024024
v -0.938410 -0.576912 -0.248265
v -0.323912 -0.753856 -0.699983
v -0.000201 0.941156 -0.248266
v -0.177141 -1.047396 0.296314
v -0.092289 -0.576913 0.916315
v 0.758830 -0.576910 0.303199
v 0.330237 -1.010769 0.024024
v -0.793653 -0.784522 0.270253
v 0.438737 -0.576912 -0.695725
v 0.955218 0.000469 0.024024
v 0.233909 0.000470 1.016822
v -0.672787 0.307884 0.821013
v -0.676457 -0.053120 -0.784993
v -1.132560 -0.106710 0.024024
v 0.233909 0.000469 -0.968774
v -0.936172 0.470670 -0.255151
v -0.085053 0.470672 -0.868267
v 0.761068 0.470670 -0.248266
v 0.146570 0.647615 0.748031
v 0.616312 0.678281 0.270252
v -0.507579 0.904529 0.024024
vn 0.6767 -0.7173 0.1659
vn -0.9892 -0.1465 -0.0021
vn -0.5174 -0.2639 -0.8140
vn -0.9872 -0.1216 -0.1029
vn 0.7624 0.0511 -0.6451
vn 0.4462 0.8664 -0.2241
vn -0.2284 0.8687 -0.4396
vn -0.4550 0.8721 -0.1798
vn -0.5415 0.8302 -0.1325
vn 0.6931 0.1897 -0.6955
vn -0.1364 0.2963 -0.9453
vn 0.9706 -0.1825 0.1569
vn 0.3067 -0.7883 -0.5334
vn 0.0467 -0.8248 -0.5635
vn -0.4172 -0.8662 0.2751
vn -0.3028 -0.8231 0.4804
vn 0.2535 -0.6850 0.6831
vn 0.6330 -0.6895 0.3521
vn -0.3185 -0.9188 0.2333
vn -0.6488 -0.3531 -0.6740
vn 0.6068 -0.3829 -0.6966
vn -0.3081 -0.0080 0.9513
vn -0.2137 -0.0351 -0.9763
vn -0.3997 0.8065 0.4357
vn -0.7690 0.6144 -0.1764
vn -0.0030 0.6912 -0.7227
vn 0.3528 0.7425 -0.5694
vn 0.3062 0.9059 0.2925
vn 0.8035 0.2310 -0.5487
vn -0.8170 0.5452 -0.1877
vn -0.2915 0.0302 0.9561
vn 0.6672 0.3623 0.6508
vn 0.8690 0.1064 0.4833
vn -0.7795 -0.2443 -0.5768
vn -0.8474 -0.2656 0.4598
vn -0.7252 -0.3332 0.6025
vn 0.5617 -0.6076 -0.5615
vn -0.3631 -0.8005 -0.4769
vn 0.3411 -0.7955 0.5008
vn 0.0356 -0.8963 0.4421
vn -0.2628 -0.9253 0.2735
vn -0.2680 -0.9435 -0.1947
vn 0.8761 -0.2641 0.4034
vn 0.0776 -0.2612 0.9622
vn -0.8113 -0.3984 0.4279
vn 0.6340 0.7652 -0.1119
vn 0.1495 0.8683 -0.4730
vn -0.2182 0.9759 0.0000
vn -0.7253 0.5175 0.4541
vn -0.0446 0.7398 0.6714
vn 0.1474 0.6416 0.7527
vn 0.6754 0.6774 0.2914
vn -0.7872 0.4173 0.4541
vn -0.7218 -0.1969 0.6635
vn 0.1901 -0.1500 0.9703
vn 0.9836 -0.0002 0.1805
vn 0.9777 -0.0703 0.1981
vn -0.7100 -0.6489 0.2735
vn 0.5600 -0.8231 0.0947
vn 0.4089 -0.9038 0.1260
vn 0.6817 -0.6814 0.2665
vn -0.1658 -0.9450 -0.2820
vn -0.0830 -0.9555 -0.2832
vn -0.5651 -0.4458 -0.6942
vn 0.4049 -0.3984 -0.8230
vn -0.2744 -0.0768 0.9586
vn 0.1879 0.7464 0.6384
vn 0.2157 0.9216 -0.3226
vn 0.3973 0.8231 -0.4058
vn -0.3867 0.8131 -0.4350
vn -0.6976 0.6633 0.2711
vn -0.0711 0.7098 0.7008
vn 0.3301 0.8369 0.4366
vn 0.4765 0.3761 -0.7947
vn -0.4992 0.4565 -0.7365
vn -0.8617 0.4262 0.2754
vn 0.5212 0.3563 0.7755
vn 0.1868 0.1544 -0.9702
vn 0.2053 -0.2077 -0.9564
vn -0.8090 -0.0090 -0.5878
vn -0.7947 -0.1876 -0.5773
vn -0.9031 -0.4212 -0.0835
vn -0.8532 -0.0517 0.5191
vn -0.5660 -0.2881 0.7724
vn 0.2972 -0.1866 0.9364
vn 0.4482 -0.3772 0.8104
vn 0.4010 -0.7624 -0.5078
vn -0.5161 -0.8351 0.1903
vn -0.4272 -0.6912 0.5829
vn 0.6817 -0.6814 -0.2665
vn 0.3439 -0.7701 0.5373
vn 0.3522 -0.7652 0.5389
vn 0.7666 -0.5801 0.2754
vn 0.0271 -0.9961 -0.0835
vn 0.8617 -0.4262 0.2754
vn -0.4583 -0.3837 -0.8017
vn 0.5287 -0.4264 -0.7339
vn -0.1941 -0.0608 -0.9791
vn 0.8090 0.0090 -0.5878
vn -0.4010 0.7624 0.5078
vn -0.6817 0.6814 -0.2665
vn 0.3356 0.7277 -0.5982
vn -0.3439 0.7701 -0.5373
vn -0.3522 0.7652 -0.5389
vn -0.6817 0.6814 0.2665
vn 0.0830 0.9555 0.2832
vn 0.3679 0.8897 0.2702
vn 0.3527 0.8985 0.2613
vn 0.9031 0.4212 -0.0835
vn 0.7947 0.1876 -0.5773
vn 0.5054 0.4941 -0.7074
vn -0.2014 0.0721 -0.9768
vn -0.4482 0.3772 -0.8104
vn -0.4049 0.3984 0.8230
vn -0.2570 0.2573 0.9315
vn 0.5739 0.2834 0.7684
vn 0.8532 0.0517 0.5191
vn -0.5212 -0.3563 0.7755
vn 0.2820 0.1366 0.9496
vn 0.3933 -0.7398 -0.5459
vn 0.1598 -0.8559 -0.4918
vn -0.3661 -0.6734 -0.6422
vn -0.7081 -0.6814 -0.1851
vn -0.6347 -0.7595 0.1425
vn -0.5514 -0.8075 0.2093
vn -0.2683 -0.6767 0.6857
vn 0.0814 -0.6857 0.7233
vn 0.3353 -0.7862 0.5191
vn -0.3759 -0.9024 -0.2105
vn -0.0764 -0.9594 -0.2714
vn -0.9031 -0.4212 0.0835
vn -0.6155 -0.3926 -0.6835
vn 0.8090 0.0090 0.5878
vn -0.2247 -0.0425 0.9735
vn -0.1818 -0.2080 -0.9611
vn 0.5161 0.8351 -0.1903
vn 0.4272 0.6912 -0.5829
vn -0.3933 0.7398 -0.5459
vn -0.7666 0.5801 0.2754
vn 0.0764 0.9594 0.2714
vn -0.2819 0.7952 0.5369
vn 0.1933 0.9485 0.2510
vn 0.8090 -0.0063 -0.5878
vn 0.5128 0.4974 -0.6998
vn -0.2014 0.0722 -0.9768
vn -0.5162 0.4689 -0.7166
vn -0.0728 0.3742 0.9245
vn 0.6523 0.3641 0.6647
vn 0.7947 0.1876 0.5773
vn 0.9031 0.4212 0.0835
vn 0.0972 -0.3971 -0.9126
vn -0.8712 0.0608 -0.4871
vn -0.8668 -0.0721 -0.4934
vn -0.8019 -0.1959 0.5645
vn -0.5932 -0.3091 0.7433
vn 0.5287 -0.4264 0.7339
vn 0.8614 -0.4264 -0.2760
vn 0.2004 -0.8521 -0.4834
vn -0.4231 -0.8757 -0.2325
vn -0.3356 -0.7277 0.5982
vn 0.7639 -0.5971 -0.2448
vn 0.3933 -0.7398 0.5459
usemtl None
s 1
f 6//1 2//1 1//1
f 5//2 4//2 9//2
f 8//3 5//3 12//3
f 5//4 9//4 12//4
f 1//5 8//5 7//5
f 10//6 7//6 13//6
f 13//7 12//7 10//7
f 12//8 11//8 10//8
f 12//9 9//9 11//9
f 8//10 13//10 7//10
f 8//11 12//11 13//11
f 6//12 1//12 7//12
f 2//13 8//13 1//13
f 2//14 5//14 8//14
f 5//15 2//15 4//15
f 2//16 3//16 4//16
f 2//17 6//17 3//17
f 21//18 18//18 20//18
f 18//19 14//19 19//19
f 15//20 19//20 16//20
f 20//21 15//21 24//21
f 14//22 21//22 22//22
f 15//23 16//23 24//23
f 22//24 25//24 17//24
f 16//25 22//25 17//25
f 24//26 16//26 17//26
f 26//27 24//27 17//27
f 25//28 26//28 17//28
f 20//29 24//29 26//29
f 23//30 22//30 16//30
f 22//31 21//31 25//31
f 21//32 26//32 25//32
f 21//33 20//33 26//33
f 16//34 19//34 23//34
f 23//35 19//35 22//35
f 19//36 14//36 22//36
f 18//37 15//37 20//37
f 18//38 19//38 15//38
f 14//39 18//39 21//39
f 27//40 31//40 28//40
f 27//41 28//41 34//41
f 27//42 34//42 35//42
f 31//43 32//43 37//43
f 28//44 31//44 39//44
f 29//45 28//45 38//45
f 30//46 44//46 41//46
f 44//47 43//47 41//47
f 43//48 42//48 41//48
f 40//49 39//49 42//49
f 42//50 39//50 41//50
f 39//51 37//51 41//51
f 37//52 30//52 41//52
f 38//53 39//53 40//53
f 38//54 28//54 39//54
f 39//55 31//55 37//55
f 37//56 36//56 30//56
f 37//57 32//57 36//57
f 34//58 28//58 29//58
f 32//59 31//59 33//59
f 31//60 27//60 33//60
f 45//61 53//61 52//61
f 50//62 55//62 46//62
f 50//63 46//63 53//63
f 46//64 55//64 60//64
f 47//65 46//65 59//65
f 51//66 48//66 57//66
f 48//67 61//67 49//67
f 64//68 65//68 49//68
f 64//69 63//69 65//69
f 65//70 62//70 49//70
f 62//71 57//71 49//71
f 57//72 48//72 49//72
f 49//73 61//73 64//73
f 59//74 65//74 63//74
f 60//75 62//75 65//75
f 58//76 57//76 62//76
f 56//77 61//77 48//77
f 59//78 60//78 65//78
f 59//79 46//79 60//79
f 60//80 58//80 62//80
f 60//81 55//81 58//81
f 55//82 54//82 58//82
f 58//83 54//83 57//83
f 54//84 51//84 57//84
f 48//85 51//85 56//85
f 51//86 45//86 56//86
f 53//87 46//87 47//87
f 55//88 50//88 54//88
f 50//89 51//89 54//89
f 52//90 53//90 47//90
f 50//91 53//91 51//91
f 53//92 45//92 51//92
f 66//93 75//93 69//93
f 74//94 77//94 75//94
f 66//95 69//95 79//95
f 68//96 78//96 82//96
f 69//97 68//97 83//97
f 68//98 82//98 83//98
f 69//99 83//99 79//99
f 70//100 86//100 88//100
f 71//101 84//101 88//101
f 87//102 85//102 73//102
f 73//103 85//103 88//103
f 85//104 71//104 88//104
f 84//105 70//105 88//105
f 88//106 86//106 73//106
f 86//107 87//107 73//107
f 86//108 72//108 87//108
f 79//109 87//109 72//109
f 79//110 83//110 87//110
f 83//111 85//111 87//111
f 83//112 82//112 85//112
f 82//113 71//113 85//113
f 81//114 86//114 70//114
f 81//115 80//115 86//115
f 66//116 72//116 86//116
f 66//117 79//117 72//117
f 76//118 80//118 81//118
f 80//119 66//119 86//119
f 75//120 68//120 69//120
f 75//121 77//121 68//121
f 77//122 78//122 68//122
f 77//123 67//123 78//123
f 77//124 76//124 67//124
f 77//125 74//125 76//125
f 74//126 80//126 76//126
f 74//127 66//127 80//127
f 74//128 75//128 66//128
f 92//129 96//129 90//129
f 92//130 90//130 95//130
f 89//131 96//131 102//131
f 90//132 89//132 101//132
f 94//133 98//133 99//133
f 93//134 99//134 100//134
f 90//135 101//135 103//135
f 97//99 103//99 98//99
f 108//136 106//136 91//136
f 106//137 105//137 91//137
f 91//103 105//103 109//103
f 105//138 104//138 109//138
f 104//139 100//139 109//139
f 109//140 107//140 91//140
f 109//141 100//141 107//141
f 107//142 108//142 91//142
f 98//143 103//143 106//143
f 103//144 105//144 106//144
f 103//145 101//145 105//145
f 101//146 104//146 105//146
f 102//76 100//76 104//76
f 99//147 107//147 100//147
f 99//148 108//148 107//148
f 99//149 98//149 108//149
f 98//150 106//150 108//150
f 97//151 90//151 103//151
f 101//152 102//152 104//152
f 101//153 89//153 102//153
f 102//154 96//154 100//154
f 96//155 93//155 100//155
f 93//156 94//156 99//156
f 94//157 97//157 98//157
f 95//158 90//158 97//158
f 90//159 96//159 89//159
f 92//160 93//160 96//160
f 94//161 95//161 97//161
f 92//91 95//91 93//91
f 95//162 94//162 93//162
