# Blender v2.79 (sub 0) OBJ File: 'purple_fish.blend'
# www.blender.org
mtllib purple_fish.mtl
o Cube.002
v -2.379368 0.554849 -0.532671
v -2.519393 0.554849 -0.392646
v -2.659418 0.554849 -0.532671
v -2.519393 0.554849 -0.672696
v -2.519393 0.694874 -0.532671
v -2.519393 0.414824 -0.532671
v -2.414374 0.659868 -0.532671
v -2.414374 0.554849 -0.637690
v -2.414374 0.449831 -0.532671
v -2.414374 0.554849 -0.427652
v -2.519393 0.659868 -0.427652
v -2.519393 0.449831 -0.427652
v -2.624412 0.554849 -0.427652
v -2.624412 0.659868 -0.532671
v -2.624412 0.449831 -0.532671
v -2.624412 0.554849 -0.637690
v -2.519393 0.659868 -0.637690
v -2.519393 0.449831 -0.637690
v -2.441601 0.632641 -0.610463
v -2.441601 0.477058 -0.610463
v -2.441601 0.632641 -0.454879
v -2.441601 0.477058 -0.454879
v -2.597185 0.632641 -0.610463
v -2.597185 0.477058 -0.610463
v -2.597185 0.632641 -0.454879
v -2.597185 0.477058 -0.454879
vn 0.8704 0.3482 -0.3482
vn 0.8704 -0.3482 -0.3482
vn 0.8704 -0.3482 0.3482
vn 0.8704 0.3482 0.3482
vn 0.3482 0.3482 0.8704
vn 0.3482 -0.3482 0.8704
vn -0.3482 -0.3482 0.8704
vn -0.3482 0.3482 0.8704
vn -0.8704 0.3482 0.3482
vn -0.8704 -0.3482 0.3482
vn -0.8704 -0.3482 -0.3482
vn -0.8704 0.3482 -0.3482
vn -0.3482 0.3482 -0.8704
vn -0.3482 -0.3482 -0.8704
vn 0.3482 -0.3482 -0.8704
vn 0.3482 0.3482 -0.8704
vn 0.3482 0.8704 0.3482
vn -0.3482 0.8704 0.3482
vn -0.3482 0.8704 -0.3482
vn 0.3482 0.8704 -0.3482
vn -0.3482 -0.8704 0.3482
vn 0.3482 -0.8704 0.3482
vn 0.3482 -0.8704 -0.3482
vn -0.3482 -0.8704 -0.3482
usemtl Material
s off
f 1//1 8//1 19//1 7//1
f 1//2 9//2 20//2 8//2
f 1//3 10//3 22//3 9//3
f 1//4 7//4 21//4 10//4
f 2//5 10//5 21//5 11//5
f 2//6 12//6 22//6 10//6
f 2//7 13//7 26//7 12//7
f 2//8 11//8 25//8 13//8
f 3//9 13//9 25//9 14//9
f 3//10 15//10 26//10 13//10
f 3//11 16//11 24//11 15//11
f 3//12 14//12 23//12 16//12
f 4//13 16//13 23//13 17//13
f 4//14 18//14 24//14 16//14
f 4//15 8//15 20//15 18//15
f 4//16 17//16 19//16 8//16
f 5//17 11//17 21//17 7//17
f 5//18 14//18 25//18 11//18
f 5//19 17//19 23//19 14//19
f 5//20 7//20 19//20 17//20
f 6//21 12//21 26//21 15//21
f 6//22 9//22 22//22 12//22
f 6//23 18//23 20//23 9//23
f 6//24 15//24 24//24 18//24
o Cube.001
v -2.379368 0.554849 0.549218
v -2.519393 0.554849 0.689243
v -2.659418 0.554849 0.549218
v -2.519393 0.554849 0.409193
v -2.519393 0.694874 0.549218
v -2.519393 0.414824 0.549218
v -2.414374 0.659868 0.549218
v -2.414374 0.554849 0.444199
v -2.414374 0.449831 0.549218
v -2.414374 0.554849 0.654236
v -2.519393 0.659868 0.654236
v -2.519393 0.449831 0.654236
v -2.624412 0.554849 0.654236
v -2.624412 0.659868 0.549218
v -2.624412 0.449831 0.549218
v -2.624412 0.554849 0.444199
v -2.519393 0.659868 0.444199
v -2.519393 0.449831 0.444199
v -2.441601 0.632641 0.471426
v -2.441601 0.477058 0.471426
v -2.441601 0.632641 0.627009
v -2.441601 0.477058 0.627009
v -2.597185 0.632641 0.471426
v -2.597185 0.477058 0.471426
v -2.597185 0.632641 0.627009
v -2.597185 0.477058 0.627009
vn 0.8704 0.3482 -0.3482
vn 0.8704 -0.3482 -0.3482
vn 0.8704 -0.3482 0.3482
vn 0.8704 0.3482 0.3482
vn 0.3482 0.3482 0.8704
vn 0.3482 -0.3482 0.8704
vn -0.3482 -0.3482 0.8704
vn -0.3482 0.3482 0.8704
vn -0.8704 0.3482 0.3482
vn -0.8704 -0.3482 0.3482
vn -0.8704 -0.3482 -0.3482
vn -0.8704 0.3482 -0.3482
vn -0.3482 0.3482 -0.8704
vn -0.3482 -0.3482 -0.8704
vn 0.3482 -0.3482 -0.8704
vn 0.3482 0.3482 -0.8704
vn 0.3482 0.8704 0.3482
vn -0.3482 0.8704 0.3482
vn -0.3482 0.8704 -0.3482
vn 0.3482 0.8704 -0.3482
vn -0.3482 -0.8704 0.3482
vn 0.3482 -0.8704 0.3482
vn 0.3482 -0.8704 -0.3482
vn -0.3482 -0.8704 -0.3482
usemtl Material
s off
f 27//25 34//25 45//25 33//25
f 27//26 35//26 46//26 34//26
f 27//27 36//27 48//27 35//27
f 27//28 33//28 47//28 36//28
f 28//29 36//29 47//29 37//29
f 28//30 38//30 48//30 36//30
f 28//31 39//31 52//31 38//31
f 28//32 37//32 51//32 39//32
f 29//33 39//33 51//33 40//33
f 29//34 41//34 52//34 39//34
f 29//35 42//35 50//35 41//35
f 29//36 40//36 49//36 42//36
f 30//37 42//37 49//37 43//37
f 30//38 44//38 50//38 42//38
f 30//39 34//39 46//39 44//39
f 30//40 43//40 45//40 34//40
f 31//41 37//41 47//41 33//41
f 31//42 40//42 51//42 37//42
f 31//43 43//43 49//43 40//43
f 31//44 33//44 45//44 43//44
f 32//45 38//45 52//45 41//45
f 32//46 35//46 48//46 38//46
f 32//47 44//47 46//47 35//47
f 32//48 41//48 50//48 44//48
o Cube
v 0.000000 -1.000000 -0.000239
v -0.000000 1.000000 -0.000239
v 2.000000 0.000000 0.498705
v -0.000000 0.000000 0.999761
v -2.000000 1.000000 -0.000000
v 0.000000 0.000000 -1.000239
v 3.000000 0.000000 -0.000477
v 2.000000 0.000000 -0.499660
v 2.000000 0.787997 -0.000478
v 2.000000 -0.787997 -0.000477
v -3.000000 -0.000000 -0.000001
v -2.000000 -0.000000 -1.000000
v -2.000000 -1.000000 -0.000001
v -2.000000 -0.000000 0.999999
v 1.000000 -0.553001 -0.000418
v 0.000000 -0.750000 -0.750239
v 1.000000 0.000000 -0.875213
v -0.000000 -0.750000 0.749761
v 1.000000 0.000000 0.874378
v -1.000000 -1.000000 -0.000060
v -1.000000 -0.000000 0.999940
v -1.000000 -0.000000 -1.000060
v 1.000000 0.553001 -0.000418
v 0.000000 0.750000 -0.750239
v -0.000000 0.750000 0.749761
v -1.000000 1.000000 -0.000060
v 2.750000 1.484996 -0.000477
v 2.750000 0.000000 -0.124455
v 2.750000 0.000000 0.123501
v 2.750000 -1.484996 -0.000477
v 2.000000 0.590998 0.373909
v 2.000000 -0.590998 0.373909
v 2.000000 -0.590998 -0.374864
v 2.000000 0.590998 -0.374864
v -2.750000 -0.750000 -0.000001
v -2.750000 -0.000000 0.749999
v -2.750000 -0.000000 -0.750001
v -2.750000 0.750000 -0.000001
v -2.000000 0.750000 -0.750000
v -2.000000 0.750000 0.749999
v -2.000000 -0.750000 -0.750001
v -2.000000 -0.750000 0.750000
v 1.000000 -0.414751 -0.656515
v 1.000000 -0.414751 0.655679
v -1.000000 -0.750000 0.749940
v -1.000000 -0.750000 -0.750060
v 1.000000 0.414751 -0.656514
v 1.000000 0.414751 0.655679
v -1.000000 0.750000 0.749940
v -1.000000 0.750000 -0.750060
v 2.555555 0.835109 -0.166508
v 2.555555 0.835109 0.165553
v 2.555556 -0.835109 -0.166508
v 2.555555 -0.835109 0.165553
v -2.555556 -0.555556 0.555555
v -2.555555 -0.555556 -0.555556
v -2.555556 0.555555 0.555555
v -2.555556 0.555555 -0.555556
vn 0.3629 -0.8982 -0.2480
vn 0.3630 -0.8982 0.2480
vn 0.0001 -0.9487 0.3162
vn -0.0001 -0.9487 -0.3162
vn 0.3629 0.8982 -0.2480
vn -0.0001 0.9487 -0.3162
vn 0.0001 0.9487 0.3162
vn 0.3630 0.8982 0.2480
vn 0.2850 0.8528 -0.4376
vn 0.2850 -0.8528 -0.4376
vn -0.3892 -0.1062 -0.9150
vn -0.3892 0.1062 -0.9150
vn 0.1622 -0.3684 0.9154
vn 0.1622 0.3684 0.9154
vn 0.0002 0.3162 0.9487
vn 0.0002 -0.3162 0.9487
vn 0.0000 0.9487 0.3162
vn -0.0000 0.9487 -0.3162
vn -0.3482 0.8704 -0.3482
vn -0.3482 0.8704 0.3482
vn 0.1619 0.3684 -0.9155
vn 0.1619 -0.3684 -0.9155
vn -0.0002 -0.3162 -0.9487
vn -0.0002 0.3162 -0.9487
vn -0.4673 -0.0736 0.8810
vn -0.4673 0.0736 0.8810
vn -0.4673 0.0736 -0.8810
vn -0.4673 -0.0736 -0.8810
vn 0.2851 -0.8528 0.4376
vn 0.2851 0.8528 0.4376
vn -0.3892 0.1062 0.9150
vn -0.3892 -0.1062 0.9150
vn 0.7584 -0.6508 -0.0371
vn 0.7584 -0.6508 0.0371
vn 0.2803 -0.5613 0.7787
vn 0.2803 -0.5613 -0.7787
vn 0.7584 0.6508 0.0371
vn 0.7584 0.6508 -0.0371
vn 0.2803 0.5613 -0.7787
vn 0.2803 0.5613 0.7787
vn -0.8704 -0.3482 0.3482
vn -0.8704 0.3482 0.3482
vn -0.8704 0.3482 -0.3482
vn -0.8704 -0.3482 -0.3482
vn -0.0001 0.3162 -0.9487
vn -0.0001 -0.3162 -0.9487
vn -0.3482 -0.3482 -0.8704
vn -0.3482 0.3482 -0.8704
vn -0.0000 -0.9487 -0.3162
vn 0.0000 -0.9487 0.3162
vn -0.3482 -0.8704 0.3482
vn -0.3482 -0.8704 -0.3482
vn 0.0001 -0.3162 0.9487
vn 0.0001 0.3162 0.9487
vn -0.3482 0.3482 0.8704
vn -0.3482 -0.3482 0.8704
usemtl Material
s off
f 53//49 68//49 95//49 67//49
f 53//50 67//50 96//50 70//50
f 53//51 70//51 97//51 72//51
f 53//52 72//52 98//52 68//52
f 54//53 75//53 99//53 76//53
f 54//54 76//54 102//54 78//54
f 54//55 78//55 101//55 77//55
f 54//56 77//56 100//56 75//56
f 55//57 84//57 100//57 71//57
f 55//58 71//58 96//58 83//58
f 55//59 83//59 104//59 81//59
f 55//60 81//60 106//60 84//60
f 56//61 70//61 96//61 71//61
f 56//62 71//62 100//62 77//62
f 56//63 77//63 101//63 73//63
f 56//64 73//64 97//64 70//64
f 57//65 92//65 101//65 78//65
f 57//66 78//66 102//66 91//66
f 57//67 91//67 110//67 90//67
f 57//68 90//68 109//68 92//68
f 58//69 76//69 99//69 69//69
f 58//70 69//70 95//70 68//70
f 58//71 68//71 98//71 74//71
f 58//72 74//72 102//72 76//72
f 59//73 79//73 103//73 80//73
f 59//74 80//74 105//74 82//74
f 59//75 82//75 106//75 81//75
f 59//76 81//76 104//76 79//76
f 60//77 86//77 95//77 69//77
f 60//78 69//78 99//78 85//78
f 60//79 85//79 105//79 80//79
f 60//80 80//80 103//80 86//80
f 61//81 83//81 96//81 67//81
f 61//82 67//82 95//82 86//82
f 61//83 86//83 103//83 79//83
f 61//84 79//84 104//84 83//84
f 62//85 85//85 99//85 75//85
f 62//86 75//86 100//86 84//86
f 62//87 84//87 106//87 82//87
f 62//88 82//88 105//88 85//88
f 63//89 87//89 107//89 88//89
f 63//90 88//90 109//90 90//90
f 63//91 90//91 110//91 89//91
f 63//92 89//92 108//92 87//92
f 64//93 91//93 102//93 74//93
f 64//94 74//94 98//94 93//94
f 64//95 93//95 108//95 89//95
f 64//96 89//96 110//96 91//96
f 65//97 93//97 98//97 72//97
f 65//98 72//98 97//98 94//98
f 65//99 94//99 107//99 87//99
f 65//100 87//100 108//100 93//100
f 66//101 94//101 97//101 73//101
f 66//102 73//102 101//102 92//102
f 66//103 92//103 109//103 88//103
f 66//104 88//104 107//104 94//104
